PathFileType	4	(X/Y/Z)	RBDS026\RBDS026runT35.trc
DataRate	CameraRate	NumFrames	NumMarkers	Units	OrigDataRate	OrigDataStartFrame	OrigNumFrames
150.000000	150.000000	4	33	mm	150.000000	3375	4500
Frame#	Time	L.ASIS			L.Heel.Bottom			L.Heel.Lateral			L.Heel.Top			L.Iliac.Crest			L.MT1			L.MT5			L.PSIS			L.Shank.Bottom.Lateral			L.Shank.Bottom.Medial			L.Shank.Top.Lateral			L.Shank.Top.Medial			L.Thigh.Bottom.Lateral			L.Thigh.Bottom.Medial			L.Thigh.Top.Lateral			L.Thigh.Top.Medial			R.ASIS			R.ASY			R.Heel.Bottom			R.Heel.Lateral			R.Heel.Top			R.Iliac.Crest			R.MT1			R.MT5			R.PSIS			R.Shank.Bottom.Lateral			R.Shank.Bottom.Medial			R.Shank.Top.Lateral			R.Shank.Top.Medial			R.Thigh.Bottom.Lateral			R.Thigh.Bottom.Medial			R.Thigh.Top.Lateral			R.Thigh.Top.Medial			
		X1	Y1	Z1	X2	Y2	Z2	X3	Y3	Z3	X4	Y4	Z4	X5	Y5	Z5	X6	Y6	Z6	X7	Y7	Z7	X8	Y8	Z8	X9	Y9	Z9	X10	Y10	Z10	X11	Y11	Z11	X12	Y12	Z12	X13	Y13	Z13	X14	Y14	Z14	X15	Y15	Z15	X16	Y16	Z16	X17	Y17	Z17	X18	Y18	Z18	X19	Y19	Z19	X20	Y20	Z20	X21	Y21	Z21	X22	Y22	Z22	X23	Y23	Z23	X24	Y24	Z24	X25	Y25	Z25	X26	Y26	Z26	X27	Y27	Z27	X28	Y28	Z28	X29	Y29	Z29	X30	Y30	Z30	X31	Y31	Z31	X32	Y32	Z32	X33	Y33	Z33	

3376	22.5	2290.349222487636	1061.653807661849	894.551136939098	2413.767378816839	45.38774439934662	995.946431732676	2435.409530155483	65.95283168833333	941.8486942119396	2404.106911234021	91.77906519468873	985.9286389513865	2210.568506911206	1148.435728857848	840.1268205643397	2618.845996465435	145.3440400386646	998.1985980371675	2581.241904742029	98.47404290217727	900.896994993105	2123.624813675948	1117.823182516177	948.9751115060728	2429.729083874421	207.2141475023473	904.5139162279411	2388.56265529458	201.1391283446567	934.7217191167269	2404.257297603044	279.1670441977154	877.3230228345495	2360.074689374193	276.0616802314117	906.4916150170944	2307.286912332486	668.0776855644961	837.2170541603348	2246.016200358747	650.2203351832646	871.7103119516984	2265.676280451519	768.1336473463939	816.7647370809709	2209.779697836889	752.1087601716575	854.1011621796916	2284.301634903654	1053.52446077085	1125.803856929301	1654.728754577418	250.8247491096146	1031.61926227104	1580.912055247466	414.171311566386	965.1092264274802	1589.483556573597	395.483465648798	1019.963524803687	1624.850634504783	414.7876901542485	979.6669397500804	2234.537569767986	1135.678163099886	1158.443584587224	1636.770212272335	197.0906998474823	981.6922365594002	1589.117160530258	239.3333069179446	1072.857030369175	2127.476344842088	1118.807883853134	1051.555593887858	1696.839592058622	397.6144537075597	1070.138308104865	1684.266590614024	433.1843607272446	1029.726245466239	1753.993546951738	450.0963976475701	1095.571672663471	1740.778944225403	483.7309151846234	1055.902653323538	2067.049739861539	655.9995925134222	1164.348113551158	2012.760157688834	679.4911506380189	1123.093390872765	2101.208179271067	760.0395147567009	1178.350763516378	2047.305258955904	782.1036377819524	1142.449172952731	
3377	22.50666666666667	2289.369042004138	1058.780741711957	893.9320408550893	2416.211551092082	41.42938195612889	996.1287661216253	2437.769947153076	61.72820514059194	941.9186154181158	2406.010800146006	87.63198024803171	985.6732080349666	2209.614118185128	1144.788011027776	840.209710173738	2619.862469523979	144.2571818442395	998.3442019316529	2583.259462251645	95.67672778876326	901.2336239781996	2122.459336156805	1113.414528184919	949.4849422526385	2430.376669811731	203.3105785799577	904.0961975596343	2389.190670045928	196.7427376318228	934.2936873607892	2404.269743749801	275.1304898069769	877.0931611215373	2360.073257853914	271.5100874140791	906.2205006260544	2305.173733968345	664.3418889967185	837.4554227995825	2243.886858729011	646.8282653556281	872.0946155820526	2264.054578038827	764.6445469745045	817.0665648162782	2208.175330590783	748.9165527475828	854.5010294083188	2284.333166802633	1051.121065775671	1125.859185420916	1650.591746597507	261.2832732281862	1030.318194155247	1582.124987682787	427.5725767832682	965.7417488717246	1590.187009421174	408.079692452807	1020.307255228138	1626.066889155199	426.4420159921826	979.9551599734335	2233.107375733929	1133.161823765933	1158.314756507037	1630.483282386269	208.7282430434832	979.7819765042387	1584.8981321721	251.7280117523972	1071.773043042115	2126.753148743771	1114.582725340352	1051.812624186678	1697.901371753324	405.6198746122502	1070.133865662725	1686.574781180673	442.2809391730695	1030.305942673159	1757.180627293376	455.4689550103025	1096.118874405924	1745.103918111111	490.2082706096049	1057.04556281487	2072.851209404294	650.3914035836573	1165.451937076836	2018.211127567635	672.9984369667101	1124.179337292838	2105.481958844787	754.9799120353155	1179.065091907535	2051.15722314537	776.2110000892429	1143.278942267411	
3378	22.51333333333334	2288.290441132584	1055.664166213702	893.1809140658017	2414.898612423285	37.7670672681239	996.3868113890178	2436.467767632423	57.65766406216776	942.0601653565418	2404.806178162115	83.84157936776464	985.6761373993136	2208.254051006883	1140.977522389214	840.4538604995714	2618.094828532147	140.5932570632856	998.1341824637624	2581.662982977242	91.36788412097174	901.1873742328499	2121.173036563217	1108.516988288321	950.2963780763763	2429.075228224699	198.9253053722612	903.7683315121732	2387.783009102866	192.2232143260571	933.8522953977429	2402.998012879526	270.7981936421297	876.8972784837493	2358.713692312652	267.0404623110799	905.8898127544541	2303.843602853828	660.5844494957356	837.6939968991588	2242.515168779568	643.1961058851795	872.3098380090134	2262.948713704466	761.0092115895463	817.3290993221448	2207.067475272442	745.3865775370938	854.7449564352942	2284.408013069788	1048.164592785681	1125.76065999195	1647.453487432624	271.4506920667636	1029.397451137739	1585.228192654227	440.6435994703451	966.2993554790252	1592.478503469477	420.3602296899513	1020.609526696775	1629.053493004956	437.6437636465624	980.2922603882676	2231.922498954066	1129.976558944125	1158.299415236162	1625.249137851796	220.1464345513802	978.2460852521239	1581.607948022121	264.058419160893	1070.823624913318	2125.997685125689	1109.733708537865	1052.375455845714	1700.205320510587	413.089623424058	1070.360564543257	1690.178420423786	450.7548945116001	1031.099069632828	1761.429417175825	460.2641737936293	1096.904008070773	1750.551042153966	496.0342068467089	1058.414018082968	2078.977738122786	644.1948417445452	1166.649616550028	2023.986538767875	665.845284137579	1125.359607435081	2109.977273777352	749.3411122445494	1179.812659369753	2055.255105326051	769.6584859511026	1144.092525712551	
3379	22.52	2287.138278795042	1052.280030134954	892.3185211369063	2409.913661234671	34.42844144981062	996.7799569894482	2431.590464800586	53.80774424754026	942.3522374090917	2400.571845609224	80.44034652538269	986.0340016630969	2206.485419210924	1136.939673182852	840.8312801800529	2613.66695814873	134.431351851292	997.7014425418696	2576.563541165257	85.71218653153947	900.8501653159295	2119.796212946584	1103.16018553088	951.3775300138785	2425.92737897369	194.0676740687165	903.6394794971729	2384.424366312391	187.5878973022517	933.4789395217398	2400.528634437034	266.1582414049169	876.8048321101353	2356.068932311748	262.640284570386	905.5393136502641	2303.245548423886	656.766501700063	837.8813129273568	2241.869848931627	639.2909316970874	872.3541789947111	2262.282103293761	757.1775023542232	817.499409039856	2206.404073421582	741.4760880764734	854.8287829882481	2284.509437702352	1044.645194078415	1125.511213668345	1645.361495383109	281.2904423623328	1028.934507721534	1590.174009283149	453.2126032913003	966.7692566899295	1596.358422654924	432.2158381209028	1020.87536514264	1633.767146138414	448.2646509477875	980.6489871810334	2231.054544582968	1126.090443635754	1158.408041892842	1621.116205627998	231.2743259136162	977.2247323142617	1579.334928558634	276.3126540062829	1070.136182443528	2125.213294087705	1104.287653253713	1053.226961604598	1703.730988948292	419.9908331672094	1070.810348459269	1695.05977116308	458.5434932453971	1032.072417932722	1766.721056963053	464.4678911503826	1097.897334832952	1757.10954906318	501.1643978323927	1059.948368352111	2085.412753608927	637.432225553727	1167.933661135266	2030.06794713341	658.0567752573085	1126.639622432145	2114.675263937287	743.1379215712865	1180.611489240035	2059.571435944006	762.4643132902639	1144.925201538816	
